G04 #@! TF.FileFunction,Copper,L2,Bot,Signal*
%FSLAX46Y46*%
G04 Gerber Fmt 4.6, Leading zero omitted, Abs format (unit mm)*
G04 Created by KiCad (PCBNEW 4.0.5-e0-6337~49~ubuntu16.04.1) date Tue Jan  3 14:04:46 2017*
%MOMM*%
%LPD*%
G01*
G04 APERTURE LIST*
%ADD10C,0.100000*%
%ADD11R,1.727200X2.032000*%
%ADD12O,1.727200X2.032000*%
%ADD13R,0.800100X0.800100*%
%ADD14R,0.900000X0.500000*%
%ADD15R,0.500000X0.900000*%
%ADD16R,2.032000X1.727200*%
%ADD17O,2.032000X1.727200*%
%ADD18R,1.500000X0.800000*%
%ADD19R,1.700000X1.500000*%
%ADD20R,1.400000X1.290000*%
%ADD21R,1.300000X1.290000*%
%ADD22R,1.500000X1.700000*%
%ADD23R,1.500000X1.600000*%
%ADD24C,0.600000*%
%ADD25C,0.350000*%
%ADD26C,0.300000*%
%ADD27C,0.760000*%
%ADD28C,0.250000*%
%ADD29C,0.254000*%
G04 APERTURE END LIST*
D10*
D11*
X162800000Y-60200000D03*
D12*
X160260000Y-60200000D03*
X157720000Y-60200000D03*
X155180000Y-60200000D03*
D13*
X162750000Y-70300760D03*
X160850000Y-70300760D03*
X161800000Y-68301780D03*
X159050000Y-70300760D03*
X157150000Y-70300760D03*
X158100000Y-68301780D03*
D14*
X162900000Y-65150000D03*
X162900000Y-66650000D03*
X158800000Y-65150000D03*
X158800000Y-66650000D03*
D15*
X160750000Y-72700000D03*
X162250000Y-72700000D03*
X157350000Y-72700000D03*
X158850000Y-72700000D03*
D16*
X150700000Y-70100000D03*
D17*
X150700000Y-67560000D03*
X150700000Y-65020000D03*
D18*
X164700000Y-82100000D03*
X164700000Y-83200000D03*
X164700000Y-84300000D03*
X164700000Y-85400000D03*
X164700000Y-86500000D03*
X164700000Y-87600000D03*
X164700000Y-88700000D03*
X164700000Y-89800000D03*
D19*
X149850000Y-80150000D03*
D20*
X155650000Y-80045000D03*
D21*
X163100000Y-80045000D03*
D19*
X149850000Y-93700000D03*
D22*
X164700000Y-93700000D03*
D23*
X164700000Y-80700000D03*
D24*
X168000000Y-61600000D03*
X151000000Y-74900000D03*
X167800000Y-86100000D03*
X165700000Y-64600000D03*
X152000000Y-87200000D03*
X161300000Y-78900000D03*
X167700000Y-84100000D03*
X167700000Y-81500000D03*
X155700000Y-78300000D03*
X152600000Y-78500000D03*
X153400000Y-79200000D03*
D25*
X162900000Y-65150000D02*
X162900000Y-63900000D01*
X155180000Y-58620000D02*
X155180000Y-60200000D01*
X155800000Y-58000000D02*
X155180000Y-58620000D01*
X164000000Y-58000000D02*
X155800000Y-58000000D01*
X165000000Y-59000000D02*
X164000000Y-58000000D01*
X165000000Y-61800000D02*
X165000000Y-59000000D01*
X162900000Y-63900000D02*
X165000000Y-61800000D01*
X158800000Y-65150000D02*
X158800000Y-63820000D01*
X158800000Y-63820000D02*
X155180000Y-60200000D01*
D26*
X158800000Y-65150000D02*
X158750000Y-65100000D01*
X164700000Y-84300000D02*
X166300000Y-84300000D01*
X169400000Y-81200000D02*
X169400000Y-81300000D01*
X166300000Y-84300000D02*
X169400000Y-81200000D01*
D27*
X169400000Y-63000000D02*
X169400000Y-70100000D01*
X168000000Y-61600000D02*
X169400000Y-63000000D01*
X151000000Y-74900000D02*
X149850000Y-76050000D01*
X149850000Y-76050000D02*
X149850000Y-80150000D01*
X149850000Y-80150000D02*
X149850000Y-93700000D01*
X149850000Y-93700000D02*
X156300000Y-93700000D01*
X156300000Y-93700000D02*
X164700000Y-93700000D01*
D25*
X163100000Y-80045000D02*
X163100000Y-74000000D01*
X167400000Y-72100000D02*
X169400000Y-70100000D01*
X165000000Y-72100000D02*
X167400000Y-72100000D01*
X163100000Y-74000000D02*
X165000000Y-72100000D01*
D27*
X164700000Y-93700000D02*
X166000000Y-93700000D01*
X166000000Y-93700000D02*
X169400000Y-90300000D01*
X169400000Y-90300000D02*
X169400000Y-81300000D01*
X169400000Y-81300000D02*
X169400000Y-70100000D01*
D25*
X163100000Y-80045000D02*
X164045000Y-80045000D01*
X164045000Y-80045000D02*
X164700000Y-80700000D01*
D26*
X164700000Y-86500000D02*
X167400000Y-86500000D01*
X167400000Y-86500000D02*
X167800000Y-86100000D01*
D25*
X162750000Y-70300760D02*
X165700000Y-67350760D01*
X165700000Y-67350760D02*
X165700000Y-64600000D01*
X159050000Y-70300760D02*
X159000000Y-70250760D01*
X159000000Y-70250760D02*
X159000000Y-69900000D01*
X162100000Y-69650760D02*
X162750000Y-70300760D01*
X162100000Y-69400000D02*
X162100000Y-69650760D01*
X159500000Y-69400000D02*
X162100000Y-69400000D01*
X159000000Y-69900000D02*
X159500000Y-69400000D01*
D26*
X162250000Y-72700000D02*
X162750000Y-72200000D01*
X162750000Y-72200000D02*
X162750000Y-70300760D01*
X158850000Y-72700000D02*
X159050000Y-72500000D01*
X159050000Y-72500000D02*
X159050000Y-70300760D01*
D28*
X164700000Y-88700000D02*
X153500000Y-88700000D01*
X153500000Y-88700000D02*
X152000000Y-87200000D01*
D26*
X164700000Y-87600000D02*
X163200000Y-87600000D01*
X161300000Y-85700000D02*
X161300000Y-78900000D01*
X163200000Y-87600000D02*
X161300000Y-85700000D01*
X164700000Y-85400000D02*
X166400000Y-85400000D01*
X166400000Y-85400000D02*
X167700000Y-84100000D01*
X164700000Y-83200000D02*
X166000000Y-83200000D01*
X166000000Y-83200000D02*
X167700000Y-81500000D01*
D28*
X155650000Y-80045000D02*
X155650000Y-78350000D01*
X155650000Y-78350000D02*
X155700000Y-78300000D01*
X155650000Y-80045000D02*
X155650000Y-79550000D01*
D26*
X157350000Y-73750000D02*
X157350000Y-72700000D01*
X152600000Y-78500000D02*
X157350000Y-73750000D01*
X157350000Y-72700000D02*
X157150000Y-72500000D01*
X157150000Y-72500000D02*
X157150000Y-70300760D01*
X160750000Y-74050000D02*
X160750000Y-72700000D01*
X159800000Y-75000000D02*
X160750000Y-74050000D01*
X157600000Y-75000000D02*
X159800000Y-75000000D01*
X153400000Y-79200000D02*
X157600000Y-75000000D01*
X160750000Y-72700000D02*
X160850000Y-72600000D01*
X160850000Y-72600000D02*
X160850000Y-70300760D01*
X162900000Y-66650000D02*
X161650000Y-66650000D01*
X162800000Y-61800000D02*
X162800000Y-60200000D01*
X161200000Y-63400000D02*
X162800000Y-61800000D01*
X161200000Y-66200000D02*
X161200000Y-63400000D01*
X161650000Y-66650000D02*
X161200000Y-66200000D01*
D25*
X161800000Y-68301780D02*
X162900000Y-67201780D01*
X162900000Y-67201780D02*
X162900000Y-66650000D01*
D26*
X162900000Y-66650000D02*
X162850000Y-66600000D01*
X158800000Y-66650000D02*
X159750000Y-66650000D01*
X160260000Y-66140000D02*
X160260000Y-60200000D01*
X159750000Y-66650000D02*
X160260000Y-66140000D01*
X158100000Y-68301780D02*
X158800000Y-67601780D01*
X158800000Y-67601780D02*
X158800000Y-66650000D01*
X158800000Y-66650000D02*
X158850000Y-66700000D01*
D29*
G36*
X170290000Y-61294091D02*
X170290000Y-71955570D01*
X170123949Y-93874363D01*
X166018240Y-93918990D01*
X165926250Y-93827000D01*
X164827000Y-93827000D01*
X164827000Y-93847000D01*
X164573000Y-93847000D01*
X164573000Y-93827000D01*
X163473750Y-93827000D01*
X163352787Y-93947963D01*
X151335000Y-94078591D01*
X151335000Y-93985750D01*
X151176250Y-93827000D01*
X149977000Y-93827000D01*
X149977000Y-93847000D01*
X149723000Y-93847000D01*
X149723000Y-93827000D01*
X148523750Y-93827000D01*
X148365000Y-93985750D01*
X148365000Y-94110874D01*
X147610000Y-94119080D01*
X147610000Y-92823691D01*
X148365000Y-92823691D01*
X148365000Y-93414250D01*
X148523750Y-93573000D01*
X149723000Y-93573000D01*
X149723000Y-92473750D01*
X149977000Y-92473750D01*
X149977000Y-93573000D01*
X151176250Y-93573000D01*
X151335000Y-93414250D01*
X151335000Y-92823691D01*
X151293579Y-92723691D01*
X163315000Y-92723691D01*
X163315000Y-93414250D01*
X163473750Y-93573000D01*
X164573000Y-93573000D01*
X164573000Y-92373750D01*
X164827000Y-92373750D01*
X164827000Y-93573000D01*
X165926250Y-93573000D01*
X166085000Y-93414250D01*
X166085000Y-92723691D01*
X165988327Y-92490302D01*
X165809699Y-92311673D01*
X165576310Y-92215000D01*
X164985750Y-92215000D01*
X164827000Y-92373750D01*
X164573000Y-92373750D01*
X164414250Y-92215000D01*
X163823690Y-92215000D01*
X163590301Y-92311673D01*
X163411673Y-92490302D01*
X163315000Y-92723691D01*
X151293579Y-92723691D01*
X151238327Y-92590302D01*
X151059699Y-92411673D01*
X150826310Y-92315000D01*
X150135750Y-92315000D01*
X149977000Y-92473750D01*
X149723000Y-92473750D01*
X149564250Y-92315000D01*
X148873690Y-92315000D01*
X148640301Y-92411673D01*
X148461673Y-92590302D01*
X148365000Y-92823691D01*
X147610000Y-92823691D01*
X147610000Y-87385167D01*
X151064838Y-87385167D01*
X151206883Y-87728943D01*
X151469673Y-87992192D01*
X151813201Y-88134838D01*
X151860077Y-88134879D01*
X152962599Y-89237401D01*
X153209160Y-89402148D01*
X153500000Y-89460000D01*
X163302560Y-89460000D01*
X163302560Y-90200000D01*
X163346838Y-90435317D01*
X163485910Y-90651441D01*
X163698110Y-90796431D01*
X163950000Y-90847440D01*
X165450000Y-90847440D01*
X165685317Y-90803162D01*
X165901441Y-90664090D01*
X166046431Y-90451890D01*
X166097440Y-90200000D01*
X166097440Y-89400000D01*
X166068179Y-89244493D01*
X166097440Y-89100000D01*
X166097440Y-88300000D01*
X166068179Y-88144493D01*
X166097440Y-88000000D01*
X166097440Y-87285000D01*
X167400000Y-87285000D01*
X167700407Y-87225245D01*
X167955079Y-87055079D01*
X167975005Y-87035153D01*
X167985167Y-87035162D01*
X168328943Y-86893117D01*
X168592192Y-86630327D01*
X168734838Y-86286799D01*
X168735162Y-85914833D01*
X168593117Y-85571057D01*
X168330327Y-85307808D01*
X167986799Y-85165162D01*
X167745206Y-85164952D01*
X167875005Y-85035153D01*
X167885167Y-85035162D01*
X168228943Y-84893117D01*
X168492192Y-84630327D01*
X168634838Y-84286799D01*
X168635162Y-83914833D01*
X168493117Y-83571057D01*
X168230327Y-83307808D01*
X167886799Y-83165162D01*
X167514833Y-83164838D01*
X167171057Y-83306883D01*
X166907808Y-83569673D01*
X166765162Y-83913201D01*
X166765152Y-83924690D01*
X166085000Y-84604842D01*
X166085000Y-84585750D01*
X165926250Y-84427000D01*
X165736182Y-84427000D01*
X165701890Y-84403569D01*
X165450000Y-84352560D01*
X163950000Y-84352560D01*
X163714683Y-84396838D01*
X163667810Y-84427000D01*
X163473750Y-84427000D01*
X163315000Y-84585750D01*
X163315000Y-84826309D01*
X163330269Y-84863171D01*
X163302560Y-85000000D01*
X163302560Y-85800000D01*
X163331821Y-85955507D01*
X163302560Y-86100000D01*
X163302560Y-86592402D01*
X162085000Y-85374842D01*
X162085000Y-81223026D01*
X162090301Y-81228327D01*
X162323690Y-81325000D01*
X162814250Y-81325000D01*
X162973000Y-81166250D01*
X162973000Y-80172000D01*
X162953000Y-80172000D01*
X162953000Y-79918000D01*
X162973000Y-79918000D01*
X162973000Y-78923750D01*
X163227000Y-78923750D01*
X163227000Y-79918000D01*
X163247000Y-79918000D01*
X163247000Y-80172000D01*
X163227000Y-80172000D01*
X163227000Y-81166250D01*
X163315000Y-81254250D01*
X163315000Y-81626309D01*
X163316668Y-81630335D01*
X163302560Y-81700000D01*
X163302560Y-82500000D01*
X163331821Y-82655507D01*
X163302560Y-82800000D01*
X163302560Y-83600000D01*
X163328919Y-83740087D01*
X163315000Y-83773691D01*
X163315000Y-84014250D01*
X163473750Y-84173000D01*
X163663818Y-84173000D01*
X163698110Y-84196431D01*
X163950000Y-84247440D01*
X165450000Y-84247440D01*
X165685317Y-84203162D01*
X165732190Y-84173000D01*
X165926250Y-84173000D01*
X166085000Y-84014250D01*
X166085000Y-83968092D01*
X166300407Y-83925245D01*
X166555079Y-83755079D01*
X167875005Y-82435153D01*
X167885167Y-82435162D01*
X168228943Y-82293117D01*
X168492192Y-82030327D01*
X168634838Y-81686799D01*
X168635162Y-81314833D01*
X168493117Y-80971057D01*
X168230327Y-80707808D01*
X167886799Y-80565162D01*
X167514833Y-80564838D01*
X167171057Y-80706883D01*
X166907808Y-80969673D01*
X166765162Y-81313201D01*
X166765152Y-81324690D01*
X166097440Y-81992402D01*
X166097440Y-81700000D01*
X166084019Y-81628676D01*
X166085000Y-81626309D01*
X166085000Y-80985750D01*
X165926250Y-80827000D01*
X164827000Y-80827000D01*
X164827000Y-80847000D01*
X164573000Y-80847000D01*
X164573000Y-80827000D01*
X164553000Y-80827000D01*
X164553000Y-80573000D01*
X164573000Y-80573000D01*
X164573000Y-79423750D01*
X164827000Y-79423750D01*
X164827000Y-80573000D01*
X165926250Y-80573000D01*
X166085000Y-80414250D01*
X166085000Y-79773691D01*
X165988327Y-79540302D01*
X165809699Y-79361673D01*
X165576310Y-79265000D01*
X164985750Y-79265000D01*
X164827000Y-79423750D01*
X164573000Y-79423750D01*
X164414250Y-79265000D01*
X164381400Y-79265000D01*
X164288327Y-79040302D01*
X164109699Y-78861673D01*
X163876310Y-78765000D01*
X163385750Y-78765000D01*
X163227000Y-78923750D01*
X162973000Y-78923750D01*
X162814250Y-78765000D01*
X162323690Y-78765000D01*
X162235086Y-78801701D01*
X162235162Y-78714833D01*
X162093117Y-78371057D01*
X161830327Y-78107808D01*
X161486799Y-77965162D01*
X161114833Y-77964838D01*
X160771057Y-78106883D01*
X160507808Y-78369673D01*
X160365162Y-78713201D01*
X160364838Y-79085167D01*
X160506883Y-79428943D01*
X160515000Y-79437074D01*
X160515000Y-85700000D01*
X160574755Y-86000407D01*
X160744921Y-86255079D01*
X162429842Y-87940000D01*
X153814802Y-87940000D01*
X152935122Y-87060320D01*
X152935162Y-87014833D01*
X152793117Y-86671057D01*
X152530327Y-86407808D01*
X152186799Y-86265162D01*
X151814833Y-86264838D01*
X151471057Y-86406883D01*
X151207808Y-86669673D01*
X151065162Y-87013201D01*
X151064838Y-87385167D01*
X147610000Y-87385167D01*
X147610000Y-80435750D01*
X148365000Y-80435750D01*
X148365000Y-81026309D01*
X148461673Y-81259698D01*
X148640301Y-81438327D01*
X148873690Y-81535000D01*
X149564250Y-81535000D01*
X149723000Y-81376250D01*
X149723000Y-80277000D01*
X149977000Y-80277000D01*
X149977000Y-81376250D01*
X150135750Y-81535000D01*
X150826310Y-81535000D01*
X151059699Y-81438327D01*
X151238327Y-81259698D01*
X151335000Y-81026309D01*
X151335000Y-80435750D01*
X151176250Y-80277000D01*
X149977000Y-80277000D01*
X149723000Y-80277000D01*
X148523750Y-80277000D01*
X148365000Y-80435750D01*
X147610000Y-80435750D01*
X147610000Y-79273691D01*
X148365000Y-79273691D01*
X148365000Y-79864250D01*
X148523750Y-80023000D01*
X149723000Y-80023000D01*
X149723000Y-78923750D01*
X149977000Y-78923750D01*
X149977000Y-80023000D01*
X151176250Y-80023000D01*
X151335000Y-79864250D01*
X151335000Y-79273691D01*
X151238327Y-79040302D01*
X151059699Y-78861673D01*
X150826310Y-78765000D01*
X150135750Y-78765000D01*
X149977000Y-78923750D01*
X149723000Y-78923750D01*
X149564250Y-78765000D01*
X148873690Y-78765000D01*
X148640301Y-78861673D01*
X148461673Y-79040302D01*
X148365000Y-79273691D01*
X147610000Y-79273691D01*
X147610000Y-78685167D01*
X151664838Y-78685167D01*
X151806883Y-79028943D01*
X152069673Y-79292192D01*
X152413201Y-79434838D01*
X152485388Y-79434901D01*
X152606883Y-79728943D01*
X152869673Y-79992192D01*
X153213201Y-80134838D01*
X153585167Y-80135162D01*
X153928943Y-79993117D01*
X154192192Y-79730327D01*
X154302560Y-79464533D01*
X154302560Y-80690000D01*
X154346838Y-80925317D01*
X154485910Y-81141441D01*
X154698110Y-81286431D01*
X154950000Y-81337440D01*
X156350000Y-81337440D01*
X156585317Y-81293162D01*
X156801441Y-81154090D01*
X156946431Y-80941890D01*
X156997440Y-80690000D01*
X156997440Y-79400000D01*
X156953162Y-79164683D01*
X156814090Y-78948559D01*
X156601890Y-78803569D01*
X156510950Y-78785153D01*
X156634838Y-78486799D01*
X156635162Y-78114833D01*
X156493117Y-77771057D01*
X156230327Y-77507808D01*
X156210559Y-77499599D01*
X157925158Y-75785000D01*
X159800000Y-75785000D01*
X160100407Y-75725245D01*
X160355079Y-75555079D01*
X161305079Y-74605079D01*
X161475245Y-74350406D01*
X161535000Y-74050000D01*
X161535000Y-73600027D01*
X161535910Y-73601441D01*
X161748110Y-73746431D01*
X162000000Y-73797440D01*
X162500000Y-73797440D01*
X162735317Y-73753162D01*
X162951441Y-73614090D01*
X163096431Y-73401890D01*
X163147440Y-73150000D01*
X163147440Y-72912718D01*
X163305079Y-72755079D01*
X163475245Y-72500406D01*
X163535000Y-72200000D01*
X163535000Y-71207686D01*
X163601491Y-71164900D01*
X163746481Y-70952700D01*
X163797490Y-70700810D01*
X163797490Y-70398782D01*
X166272756Y-67923516D01*
X166287313Y-67901730D01*
X166448342Y-67660734D01*
X166510000Y-67350760D01*
X166510000Y-65087441D01*
X166634838Y-64786799D01*
X166635162Y-64414833D01*
X166493117Y-64071057D01*
X166230327Y-63807808D01*
X165886799Y-63665162D01*
X165514833Y-63664838D01*
X165171057Y-63806883D01*
X164907808Y-64069673D01*
X164765162Y-64413201D01*
X164764838Y-64785167D01*
X164890000Y-65088083D01*
X164890000Y-67015248D01*
X162835076Y-69070172D01*
X162776654Y-68982738D01*
X162796481Y-68953720D01*
X162847490Y-68701830D01*
X162847490Y-68399802D01*
X163472757Y-67774536D01*
X163624497Y-67547440D01*
X163648342Y-67511754D01*
X163659553Y-67455392D01*
X163801441Y-67364090D01*
X163946431Y-67151890D01*
X163997440Y-66900000D01*
X163997440Y-66400000D01*
X163953162Y-66164683D01*
X163814090Y-65948559D01*
X163744289Y-65900866D01*
X163801441Y-65864090D01*
X163946431Y-65651890D01*
X163997440Y-65400000D01*
X163997440Y-64900000D01*
X163953162Y-64664683D01*
X163814090Y-64448559D01*
X163710000Y-64377437D01*
X163710000Y-64235512D01*
X165572756Y-62372757D01*
X165660549Y-62241365D01*
X165748342Y-62109974D01*
X165810000Y-61800000D01*
X165810000Y-59000000D01*
X165796071Y-58929973D01*
X165748343Y-58690027D01*
X165572757Y-58427244D01*
X164572756Y-57427244D01*
X164309974Y-57251658D01*
X164000000Y-57190000D01*
X155800000Y-57190000D01*
X155490026Y-57251658D01*
X155358635Y-57339451D01*
X155227243Y-57427244D01*
X154607244Y-58047244D01*
X154431658Y-58310026D01*
X154370000Y-58620000D01*
X154370000Y-58788761D01*
X154120330Y-58955585D01*
X153795474Y-59441766D01*
X153681400Y-60015255D01*
X153681400Y-60384745D01*
X153795474Y-60958234D01*
X154120330Y-61444415D01*
X154606511Y-61769271D01*
X155180000Y-61883345D01*
X155628601Y-61794113D01*
X157990000Y-64155513D01*
X157990000Y-64377069D01*
X157898559Y-64435910D01*
X157753569Y-64648110D01*
X157702560Y-64900000D01*
X157702560Y-65400000D01*
X157746838Y-65635317D01*
X157885910Y-65851441D01*
X157955711Y-65899134D01*
X157898559Y-65935910D01*
X157753569Y-66148110D01*
X157702560Y-66400000D01*
X157702560Y-66900000D01*
X157746838Y-67135317D01*
X157823395Y-67254290D01*
X157699950Y-67254290D01*
X157464633Y-67298568D01*
X157248509Y-67437640D01*
X157103519Y-67649840D01*
X157052510Y-67901730D01*
X157052510Y-68701830D01*
X157096788Y-68937147D01*
X157235860Y-69153271D01*
X157382213Y-69253270D01*
X156749950Y-69253270D01*
X156514633Y-69297548D01*
X156298509Y-69436620D01*
X156153519Y-69648820D01*
X156102510Y-69900710D01*
X156102510Y-70700810D01*
X156146788Y-70936127D01*
X156285860Y-71152251D01*
X156365000Y-71206325D01*
X156365000Y-72500000D01*
X156424755Y-72800407D01*
X156452560Y-72842020D01*
X156452560Y-73150000D01*
X156496838Y-73385317D01*
X156539001Y-73450841D01*
X152424995Y-77564847D01*
X152414833Y-77564838D01*
X152071057Y-77706883D01*
X151807808Y-77969673D01*
X151665162Y-78313201D01*
X151664838Y-78685167D01*
X147610000Y-78685167D01*
X147610000Y-67560000D01*
X149016655Y-67560000D01*
X149130729Y-68133489D01*
X149455585Y-68619670D01*
X149469913Y-68629243D01*
X149448683Y-68633238D01*
X149232559Y-68772310D01*
X149087569Y-68984510D01*
X149036560Y-69236400D01*
X149036560Y-70963600D01*
X149080838Y-71198917D01*
X149219910Y-71415041D01*
X149432110Y-71560031D01*
X149684000Y-71611040D01*
X151716000Y-71611040D01*
X151951317Y-71566762D01*
X152167441Y-71427690D01*
X152312431Y-71215490D01*
X152363440Y-70963600D01*
X152363440Y-69236400D01*
X152319162Y-69001083D01*
X152180090Y-68784959D01*
X151967890Y-68639969D01*
X151926561Y-68631600D01*
X151944415Y-68619670D01*
X152269271Y-68133489D01*
X152383345Y-67560000D01*
X152269271Y-66986511D01*
X151944415Y-66500330D01*
X151634931Y-66293539D01*
X152050732Y-65922036D01*
X152304709Y-65394791D01*
X152307358Y-65379026D01*
X152186217Y-65147000D01*
X150827000Y-65147000D01*
X150827000Y-65167000D01*
X150573000Y-65167000D01*
X150573000Y-65147000D01*
X149213783Y-65147000D01*
X149092642Y-65379026D01*
X149095291Y-65394791D01*
X149349268Y-65922036D01*
X149765069Y-66293539D01*
X149455585Y-66500330D01*
X149130729Y-66986511D01*
X149016655Y-67560000D01*
X147610000Y-67560000D01*
X147610000Y-64660974D01*
X149092642Y-64660974D01*
X149213783Y-64893000D01*
X150573000Y-64893000D01*
X150573000Y-63679076D01*
X150827000Y-63679076D01*
X150827000Y-64893000D01*
X152186217Y-64893000D01*
X152307358Y-64660974D01*
X152304709Y-64645209D01*
X152050732Y-64117964D01*
X151614320Y-63728046D01*
X151061913Y-63534816D01*
X150827000Y-63679076D01*
X150573000Y-63679076D01*
X150338087Y-63534816D01*
X149785680Y-63728046D01*
X149349268Y-64117964D01*
X149095291Y-64645209D01*
X149092642Y-64660974D01*
X147610000Y-64660974D01*
X147610000Y-61394092D01*
X152194092Y-56810000D01*
X165805908Y-56810000D01*
X170290000Y-61294091D01*
X170290000Y-61294091D01*
G37*
X170290000Y-61294091D02*
X170290000Y-71955570D01*
X170123949Y-93874363D01*
X166018240Y-93918990D01*
X165926250Y-93827000D01*
X164827000Y-93827000D01*
X164827000Y-93847000D01*
X164573000Y-93847000D01*
X164573000Y-93827000D01*
X163473750Y-93827000D01*
X163352787Y-93947963D01*
X151335000Y-94078591D01*
X151335000Y-93985750D01*
X151176250Y-93827000D01*
X149977000Y-93827000D01*
X149977000Y-93847000D01*
X149723000Y-93847000D01*
X149723000Y-93827000D01*
X148523750Y-93827000D01*
X148365000Y-93985750D01*
X148365000Y-94110874D01*
X147610000Y-94119080D01*
X147610000Y-92823691D01*
X148365000Y-92823691D01*
X148365000Y-93414250D01*
X148523750Y-93573000D01*
X149723000Y-93573000D01*
X149723000Y-92473750D01*
X149977000Y-92473750D01*
X149977000Y-93573000D01*
X151176250Y-93573000D01*
X151335000Y-93414250D01*
X151335000Y-92823691D01*
X151293579Y-92723691D01*
X163315000Y-92723691D01*
X163315000Y-93414250D01*
X163473750Y-93573000D01*
X164573000Y-93573000D01*
X164573000Y-92373750D01*
X164827000Y-92373750D01*
X164827000Y-93573000D01*
X165926250Y-93573000D01*
X166085000Y-93414250D01*
X166085000Y-92723691D01*
X165988327Y-92490302D01*
X165809699Y-92311673D01*
X165576310Y-92215000D01*
X164985750Y-92215000D01*
X164827000Y-92373750D01*
X164573000Y-92373750D01*
X164414250Y-92215000D01*
X163823690Y-92215000D01*
X163590301Y-92311673D01*
X163411673Y-92490302D01*
X163315000Y-92723691D01*
X151293579Y-92723691D01*
X151238327Y-92590302D01*
X151059699Y-92411673D01*
X150826310Y-92315000D01*
X150135750Y-92315000D01*
X149977000Y-92473750D01*
X149723000Y-92473750D01*
X149564250Y-92315000D01*
X148873690Y-92315000D01*
X148640301Y-92411673D01*
X148461673Y-92590302D01*
X148365000Y-92823691D01*
X147610000Y-92823691D01*
X147610000Y-87385167D01*
X151064838Y-87385167D01*
X151206883Y-87728943D01*
X151469673Y-87992192D01*
X151813201Y-88134838D01*
X151860077Y-88134879D01*
X152962599Y-89237401D01*
X153209160Y-89402148D01*
X153500000Y-89460000D01*
X163302560Y-89460000D01*
X163302560Y-90200000D01*
X163346838Y-90435317D01*
X163485910Y-90651441D01*
X163698110Y-90796431D01*
X163950000Y-90847440D01*
X165450000Y-90847440D01*
X165685317Y-90803162D01*
X165901441Y-90664090D01*
X166046431Y-90451890D01*
X166097440Y-90200000D01*
X166097440Y-89400000D01*
X166068179Y-89244493D01*
X166097440Y-89100000D01*
X166097440Y-88300000D01*
X166068179Y-88144493D01*
X166097440Y-88000000D01*
X166097440Y-87285000D01*
X167400000Y-87285000D01*
X167700407Y-87225245D01*
X167955079Y-87055079D01*
X167975005Y-87035153D01*
X167985167Y-87035162D01*
X168328943Y-86893117D01*
X168592192Y-86630327D01*
X168734838Y-86286799D01*
X168735162Y-85914833D01*
X168593117Y-85571057D01*
X168330327Y-85307808D01*
X167986799Y-85165162D01*
X167745206Y-85164952D01*
X167875005Y-85035153D01*
X167885167Y-85035162D01*
X168228943Y-84893117D01*
X168492192Y-84630327D01*
X168634838Y-84286799D01*
X168635162Y-83914833D01*
X168493117Y-83571057D01*
X168230327Y-83307808D01*
X167886799Y-83165162D01*
X167514833Y-83164838D01*
X167171057Y-83306883D01*
X166907808Y-83569673D01*
X166765162Y-83913201D01*
X166765152Y-83924690D01*
X166085000Y-84604842D01*
X166085000Y-84585750D01*
X165926250Y-84427000D01*
X165736182Y-84427000D01*
X165701890Y-84403569D01*
X165450000Y-84352560D01*
X163950000Y-84352560D01*
X163714683Y-84396838D01*
X163667810Y-84427000D01*
X163473750Y-84427000D01*
X163315000Y-84585750D01*
X163315000Y-84826309D01*
X163330269Y-84863171D01*
X163302560Y-85000000D01*
X163302560Y-85800000D01*
X163331821Y-85955507D01*
X163302560Y-86100000D01*
X163302560Y-86592402D01*
X162085000Y-85374842D01*
X162085000Y-81223026D01*
X162090301Y-81228327D01*
X162323690Y-81325000D01*
X162814250Y-81325000D01*
X162973000Y-81166250D01*
X162973000Y-80172000D01*
X162953000Y-80172000D01*
X162953000Y-79918000D01*
X162973000Y-79918000D01*
X162973000Y-78923750D01*
X163227000Y-78923750D01*
X163227000Y-79918000D01*
X163247000Y-79918000D01*
X163247000Y-80172000D01*
X163227000Y-80172000D01*
X163227000Y-81166250D01*
X163315000Y-81254250D01*
X163315000Y-81626309D01*
X163316668Y-81630335D01*
X163302560Y-81700000D01*
X163302560Y-82500000D01*
X163331821Y-82655507D01*
X163302560Y-82800000D01*
X163302560Y-83600000D01*
X163328919Y-83740087D01*
X163315000Y-83773691D01*
X163315000Y-84014250D01*
X163473750Y-84173000D01*
X163663818Y-84173000D01*
X163698110Y-84196431D01*
X163950000Y-84247440D01*
X165450000Y-84247440D01*
X165685317Y-84203162D01*
X165732190Y-84173000D01*
X165926250Y-84173000D01*
X166085000Y-84014250D01*
X166085000Y-83968092D01*
X166300407Y-83925245D01*
X166555079Y-83755079D01*
X167875005Y-82435153D01*
X167885167Y-82435162D01*
X168228943Y-82293117D01*
X168492192Y-82030327D01*
X168634838Y-81686799D01*
X168635162Y-81314833D01*
X168493117Y-80971057D01*
X168230327Y-80707808D01*
X167886799Y-80565162D01*
X167514833Y-80564838D01*
X167171057Y-80706883D01*
X166907808Y-80969673D01*
X166765162Y-81313201D01*
X166765152Y-81324690D01*
X166097440Y-81992402D01*
X166097440Y-81700000D01*
X166084019Y-81628676D01*
X166085000Y-81626309D01*
X166085000Y-80985750D01*
X165926250Y-80827000D01*
X164827000Y-80827000D01*
X164827000Y-80847000D01*
X164573000Y-80847000D01*
X164573000Y-80827000D01*
X164553000Y-80827000D01*
X164553000Y-80573000D01*
X164573000Y-80573000D01*
X164573000Y-79423750D01*
X164827000Y-79423750D01*
X164827000Y-80573000D01*
X165926250Y-80573000D01*
X166085000Y-80414250D01*
X166085000Y-79773691D01*
X165988327Y-79540302D01*
X165809699Y-79361673D01*
X165576310Y-79265000D01*
X164985750Y-79265000D01*
X164827000Y-79423750D01*
X164573000Y-79423750D01*
X164414250Y-79265000D01*
X164381400Y-79265000D01*
X164288327Y-79040302D01*
X164109699Y-78861673D01*
X163876310Y-78765000D01*
X163385750Y-78765000D01*
X163227000Y-78923750D01*
X162973000Y-78923750D01*
X162814250Y-78765000D01*
X162323690Y-78765000D01*
X162235086Y-78801701D01*
X162235162Y-78714833D01*
X162093117Y-78371057D01*
X161830327Y-78107808D01*
X161486799Y-77965162D01*
X161114833Y-77964838D01*
X160771057Y-78106883D01*
X160507808Y-78369673D01*
X160365162Y-78713201D01*
X160364838Y-79085167D01*
X160506883Y-79428943D01*
X160515000Y-79437074D01*
X160515000Y-85700000D01*
X160574755Y-86000407D01*
X160744921Y-86255079D01*
X162429842Y-87940000D01*
X153814802Y-87940000D01*
X152935122Y-87060320D01*
X152935162Y-87014833D01*
X152793117Y-86671057D01*
X152530327Y-86407808D01*
X152186799Y-86265162D01*
X151814833Y-86264838D01*
X151471057Y-86406883D01*
X151207808Y-86669673D01*
X151065162Y-87013201D01*
X151064838Y-87385167D01*
X147610000Y-87385167D01*
X147610000Y-80435750D01*
X148365000Y-80435750D01*
X148365000Y-81026309D01*
X148461673Y-81259698D01*
X148640301Y-81438327D01*
X148873690Y-81535000D01*
X149564250Y-81535000D01*
X149723000Y-81376250D01*
X149723000Y-80277000D01*
X149977000Y-80277000D01*
X149977000Y-81376250D01*
X150135750Y-81535000D01*
X150826310Y-81535000D01*
X151059699Y-81438327D01*
X151238327Y-81259698D01*
X151335000Y-81026309D01*
X151335000Y-80435750D01*
X151176250Y-80277000D01*
X149977000Y-80277000D01*
X149723000Y-80277000D01*
X148523750Y-80277000D01*
X148365000Y-80435750D01*
X147610000Y-80435750D01*
X147610000Y-79273691D01*
X148365000Y-79273691D01*
X148365000Y-79864250D01*
X148523750Y-80023000D01*
X149723000Y-80023000D01*
X149723000Y-78923750D01*
X149977000Y-78923750D01*
X149977000Y-80023000D01*
X151176250Y-80023000D01*
X151335000Y-79864250D01*
X151335000Y-79273691D01*
X151238327Y-79040302D01*
X151059699Y-78861673D01*
X150826310Y-78765000D01*
X150135750Y-78765000D01*
X149977000Y-78923750D01*
X149723000Y-78923750D01*
X149564250Y-78765000D01*
X148873690Y-78765000D01*
X148640301Y-78861673D01*
X148461673Y-79040302D01*
X148365000Y-79273691D01*
X147610000Y-79273691D01*
X147610000Y-78685167D01*
X151664838Y-78685167D01*
X151806883Y-79028943D01*
X152069673Y-79292192D01*
X152413201Y-79434838D01*
X152485388Y-79434901D01*
X152606883Y-79728943D01*
X152869673Y-79992192D01*
X153213201Y-80134838D01*
X153585167Y-80135162D01*
X153928943Y-79993117D01*
X154192192Y-79730327D01*
X154302560Y-79464533D01*
X154302560Y-80690000D01*
X154346838Y-80925317D01*
X154485910Y-81141441D01*
X154698110Y-81286431D01*
X154950000Y-81337440D01*
X156350000Y-81337440D01*
X156585317Y-81293162D01*
X156801441Y-81154090D01*
X156946431Y-80941890D01*
X156997440Y-80690000D01*
X156997440Y-79400000D01*
X156953162Y-79164683D01*
X156814090Y-78948559D01*
X156601890Y-78803569D01*
X156510950Y-78785153D01*
X156634838Y-78486799D01*
X156635162Y-78114833D01*
X156493117Y-77771057D01*
X156230327Y-77507808D01*
X156210559Y-77499599D01*
X157925158Y-75785000D01*
X159800000Y-75785000D01*
X160100407Y-75725245D01*
X160355079Y-75555079D01*
X161305079Y-74605079D01*
X161475245Y-74350406D01*
X161535000Y-74050000D01*
X161535000Y-73600027D01*
X161535910Y-73601441D01*
X161748110Y-73746431D01*
X162000000Y-73797440D01*
X162500000Y-73797440D01*
X162735317Y-73753162D01*
X162951441Y-73614090D01*
X163096431Y-73401890D01*
X163147440Y-73150000D01*
X163147440Y-72912718D01*
X163305079Y-72755079D01*
X163475245Y-72500406D01*
X163535000Y-72200000D01*
X163535000Y-71207686D01*
X163601491Y-71164900D01*
X163746481Y-70952700D01*
X163797490Y-70700810D01*
X163797490Y-70398782D01*
X166272756Y-67923516D01*
X166287313Y-67901730D01*
X166448342Y-67660734D01*
X166510000Y-67350760D01*
X166510000Y-65087441D01*
X166634838Y-64786799D01*
X166635162Y-64414833D01*
X166493117Y-64071057D01*
X166230327Y-63807808D01*
X165886799Y-63665162D01*
X165514833Y-63664838D01*
X165171057Y-63806883D01*
X164907808Y-64069673D01*
X164765162Y-64413201D01*
X164764838Y-64785167D01*
X164890000Y-65088083D01*
X164890000Y-67015248D01*
X162835076Y-69070172D01*
X162776654Y-68982738D01*
X162796481Y-68953720D01*
X162847490Y-68701830D01*
X162847490Y-68399802D01*
X163472757Y-67774536D01*
X163624497Y-67547440D01*
X163648342Y-67511754D01*
X163659553Y-67455392D01*
X163801441Y-67364090D01*
X163946431Y-67151890D01*
X163997440Y-66900000D01*
X163997440Y-66400000D01*
X163953162Y-66164683D01*
X163814090Y-65948559D01*
X163744289Y-65900866D01*
X163801441Y-65864090D01*
X163946431Y-65651890D01*
X163997440Y-65400000D01*
X163997440Y-64900000D01*
X163953162Y-64664683D01*
X163814090Y-64448559D01*
X163710000Y-64377437D01*
X163710000Y-64235512D01*
X165572756Y-62372757D01*
X165660549Y-62241365D01*
X165748342Y-62109974D01*
X165810000Y-61800000D01*
X165810000Y-59000000D01*
X165796071Y-58929973D01*
X165748343Y-58690027D01*
X165572757Y-58427244D01*
X164572756Y-57427244D01*
X164309974Y-57251658D01*
X164000000Y-57190000D01*
X155800000Y-57190000D01*
X155490026Y-57251658D01*
X155358635Y-57339451D01*
X155227243Y-57427244D01*
X154607244Y-58047244D01*
X154431658Y-58310026D01*
X154370000Y-58620000D01*
X154370000Y-58788761D01*
X154120330Y-58955585D01*
X153795474Y-59441766D01*
X153681400Y-60015255D01*
X153681400Y-60384745D01*
X153795474Y-60958234D01*
X154120330Y-61444415D01*
X154606511Y-61769271D01*
X155180000Y-61883345D01*
X155628601Y-61794113D01*
X157990000Y-64155513D01*
X157990000Y-64377069D01*
X157898559Y-64435910D01*
X157753569Y-64648110D01*
X157702560Y-64900000D01*
X157702560Y-65400000D01*
X157746838Y-65635317D01*
X157885910Y-65851441D01*
X157955711Y-65899134D01*
X157898559Y-65935910D01*
X157753569Y-66148110D01*
X157702560Y-66400000D01*
X157702560Y-66900000D01*
X157746838Y-67135317D01*
X157823395Y-67254290D01*
X157699950Y-67254290D01*
X157464633Y-67298568D01*
X157248509Y-67437640D01*
X157103519Y-67649840D01*
X157052510Y-67901730D01*
X157052510Y-68701830D01*
X157096788Y-68937147D01*
X157235860Y-69153271D01*
X157382213Y-69253270D01*
X156749950Y-69253270D01*
X156514633Y-69297548D01*
X156298509Y-69436620D01*
X156153519Y-69648820D01*
X156102510Y-69900710D01*
X156102510Y-70700810D01*
X156146788Y-70936127D01*
X156285860Y-71152251D01*
X156365000Y-71206325D01*
X156365000Y-72500000D01*
X156424755Y-72800407D01*
X156452560Y-72842020D01*
X156452560Y-73150000D01*
X156496838Y-73385317D01*
X156539001Y-73450841D01*
X152424995Y-77564847D01*
X152414833Y-77564838D01*
X152071057Y-77706883D01*
X151807808Y-77969673D01*
X151665162Y-78313201D01*
X151664838Y-78685167D01*
X147610000Y-78685167D01*
X147610000Y-67560000D01*
X149016655Y-67560000D01*
X149130729Y-68133489D01*
X149455585Y-68619670D01*
X149469913Y-68629243D01*
X149448683Y-68633238D01*
X149232559Y-68772310D01*
X149087569Y-68984510D01*
X149036560Y-69236400D01*
X149036560Y-70963600D01*
X149080838Y-71198917D01*
X149219910Y-71415041D01*
X149432110Y-71560031D01*
X149684000Y-71611040D01*
X151716000Y-71611040D01*
X151951317Y-71566762D01*
X152167441Y-71427690D01*
X152312431Y-71215490D01*
X152363440Y-70963600D01*
X152363440Y-69236400D01*
X152319162Y-69001083D01*
X152180090Y-68784959D01*
X151967890Y-68639969D01*
X151926561Y-68631600D01*
X151944415Y-68619670D01*
X152269271Y-68133489D01*
X152383345Y-67560000D01*
X152269271Y-66986511D01*
X151944415Y-66500330D01*
X151634931Y-66293539D01*
X152050732Y-65922036D01*
X152304709Y-65394791D01*
X152307358Y-65379026D01*
X152186217Y-65147000D01*
X150827000Y-65147000D01*
X150827000Y-65167000D01*
X150573000Y-65167000D01*
X150573000Y-65147000D01*
X149213783Y-65147000D01*
X149092642Y-65379026D01*
X149095291Y-65394791D01*
X149349268Y-65922036D01*
X149765069Y-66293539D01*
X149455585Y-66500330D01*
X149130729Y-66986511D01*
X149016655Y-67560000D01*
X147610000Y-67560000D01*
X147610000Y-64660974D01*
X149092642Y-64660974D01*
X149213783Y-64893000D01*
X150573000Y-64893000D01*
X150573000Y-63679076D01*
X150827000Y-63679076D01*
X150827000Y-64893000D01*
X152186217Y-64893000D01*
X152307358Y-64660974D01*
X152304709Y-64645209D01*
X152050732Y-64117964D01*
X151614320Y-63728046D01*
X151061913Y-63534816D01*
X150827000Y-63679076D01*
X150573000Y-63679076D01*
X150338087Y-63534816D01*
X149785680Y-63728046D01*
X149349268Y-64117964D01*
X149095291Y-64645209D01*
X149092642Y-64660974D01*
X147610000Y-64660974D01*
X147610000Y-61394092D01*
X152194092Y-56810000D01*
X165805908Y-56810000D01*
X170290000Y-61294091D01*
G36*
X157847000Y-60073000D02*
X157867000Y-60073000D01*
X157867000Y-60327000D01*
X157847000Y-60327000D01*
X157847000Y-60347000D01*
X157593000Y-60347000D01*
X157593000Y-60327000D01*
X157573000Y-60327000D01*
X157573000Y-60073000D01*
X157593000Y-60073000D01*
X157593000Y-60053000D01*
X157847000Y-60053000D01*
X157847000Y-60073000D01*
X157847000Y-60073000D01*
G37*
X157847000Y-60073000D02*
X157867000Y-60073000D01*
X157867000Y-60327000D01*
X157847000Y-60327000D01*
X157847000Y-60347000D01*
X157593000Y-60347000D01*
X157593000Y-60327000D01*
X157573000Y-60327000D01*
X157573000Y-60073000D01*
X157593000Y-60073000D01*
X157593000Y-60053000D01*
X157847000Y-60053000D01*
X157847000Y-60073000D01*
M02*
