G04 #@! TF.FileFunction,Soldermask,Top*
%FSLAX46Y46*%
G04 Gerber Fmt 4.6, Leading zero omitted, Abs format (unit mm)*
G04 Created by KiCad (PCBNEW 4.0.4+e1-6308~48~ubuntu16.04.1-stable) date Mon Nov 21 01:04:18 2016*
%MOMM*%
%LPD*%
G01*
G04 APERTURE LIST*
%ADD10C,0.100000*%
%ADD11R,2.900000X1.500000*%
%ADD12O,2.900000X1.500000*%
%ADD13O,1.500000X2.800000*%
%ADD14R,2.300000X1.350000*%
%ADD15R,2.300000X3.650000*%
%ADD16R,1.150000X1.200000*%
%ADD17R,1.200000X1.000000*%
%ADD18R,2.127200X2.432000*%
%ADD19O,2.127200X2.432000*%
%ADD20R,1.300000X0.900000*%
%ADD21R,2.432000X2.127200*%
%ADD22O,2.432000X2.127200*%
G04 APERTURE END LIST*
D10*
D11*
X166000000Y-92300000D03*
D12*
X166000000Y-90300000D03*
X166000000Y-88300000D03*
X166000000Y-86300000D03*
X166000000Y-84300000D03*
X166000000Y-82300000D03*
X166000000Y-80300000D03*
X166000000Y-78300000D03*
D13*
X163310000Y-76550000D03*
X161310000Y-76550000D03*
X159310000Y-76550000D03*
X157310000Y-76550000D03*
X155310000Y-76550000D03*
X153310000Y-76550000D03*
D12*
X150600000Y-78300000D03*
X150700000Y-80300000D03*
X150600000Y-82300000D03*
X150600000Y-84300000D03*
X150600000Y-86300000D03*
X150600000Y-88300000D03*
X150600000Y-90300000D03*
X150600000Y-92300000D03*
D14*
X164200000Y-68400000D03*
X164200000Y-66100000D03*
X164200000Y-70700000D03*
D15*
X158100000Y-68400000D03*
D16*
X166800000Y-70750000D03*
X166800000Y-69250000D03*
X166800000Y-66150000D03*
X166800000Y-67650000D03*
D17*
X155100000Y-68150000D03*
X155100000Y-69850000D03*
D18*
X163150000Y-62450000D03*
D19*
X160610000Y-62450000D03*
X158070000Y-62450000D03*
X155530000Y-62450000D03*
D20*
X155100000Y-66550000D03*
X155100000Y-65050000D03*
X166800000Y-72350000D03*
X166800000Y-73850000D03*
D21*
X150700000Y-70100000D03*
D22*
X150700000Y-67560000D03*
X150700000Y-65020000D03*
M02*
