G04 #@! TF.FileFunction,Legend,Top*
%FSLAX46Y46*%
G04 Gerber Fmt 4.6, Leading zero omitted, Abs format (unit mm)*
G04 Created by KiCad (PCBNEW 4.0.4+e1-6308~48~ubuntu16.04.1-stable) date Mon Nov 21 01:04:18 2016*
%MOMM*%
%LPD*%
G01*
G04 APERTURE LIST*
%ADD10C,0.100000*%
%ADD11C,0.125000*%
%ADD12C,0.152400*%
%ADD13C,0.150000*%
G04 APERTURE END LIST*
D10*
D11*
X165619048Y-59851190D02*
X165619048Y-59351190D01*
X165785714Y-59708333D01*
X165952381Y-59351190D01*
X165952381Y-59851190D01*
X166190477Y-59851190D02*
X166190477Y-59351190D01*
X166380953Y-59351190D01*
X166428572Y-59375000D01*
X166452381Y-59398810D01*
X166476191Y-59446429D01*
X166476191Y-59517857D01*
X166452381Y-59565476D01*
X166428572Y-59589286D01*
X166380953Y-59613095D01*
X166190477Y-59613095D01*
X166642858Y-59351190D02*
X166761905Y-59851190D01*
X166857143Y-59494048D01*
X166952381Y-59851190D01*
X167071429Y-59351190D01*
X167261906Y-59851190D02*
X167261906Y-59517857D01*
X167261906Y-59351190D02*
X167238096Y-59375000D01*
X167261906Y-59398810D01*
X167285715Y-59375000D01*
X167261906Y-59351190D01*
X167261906Y-59398810D01*
X167428572Y-59517857D02*
X167619048Y-59517857D01*
X167500001Y-59851190D02*
X167500001Y-59422619D01*
X167523810Y-59375000D01*
X167571429Y-59351190D01*
X167619048Y-59351190D01*
X167785715Y-59851190D02*
X167785715Y-59517857D01*
X167785715Y-59351190D02*
X167761905Y-59375000D01*
X167785715Y-59398810D01*
X167809524Y-59375000D01*
X167785715Y-59351190D01*
X167785715Y-59398810D01*
X168357143Y-59517857D02*
X168476190Y-59851190D01*
X168595238Y-59517857D01*
X169047618Y-59851190D02*
X168761904Y-59851190D01*
X168904761Y-59851190D02*
X168904761Y-59351190D01*
X168857142Y-59422619D01*
X168809523Y-59470238D01*
X168761904Y-59494048D01*
X169261904Y-59803571D02*
X169285713Y-59827381D01*
X169261904Y-59851190D01*
X169238094Y-59827381D01*
X169261904Y-59803571D01*
X169261904Y-59851190D01*
X169595237Y-59351190D02*
X169642856Y-59351190D01*
X169690475Y-59375000D01*
X169714284Y-59398810D01*
X169738094Y-59446429D01*
X169761903Y-59541667D01*
X169761903Y-59660714D01*
X169738094Y-59755952D01*
X169714284Y-59803571D01*
X169690475Y-59827381D01*
X169642856Y-59851190D01*
X169595237Y-59851190D01*
X169547618Y-59827381D01*
X169523808Y-59803571D01*
X169499999Y-59755952D01*
X169476189Y-59660714D01*
X169476189Y-59541667D01*
X169499999Y-59446429D01*
X169523808Y-59398810D01*
X169547618Y-59375000D01*
X169595237Y-59351190D01*
X165619048Y-60726190D02*
X165619048Y-60226190D01*
X165785714Y-60583333D01*
X165952381Y-60226190D01*
X165952381Y-60726190D01*
X166571429Y-60726190D02*
X166571429Y-60226190D01*
X166761905Y-60226190D01*
X166809524Y-60250000D01*
X166833333Y-60273810D01*
X166857143Y-60321429D01*
X166857143Y-60392857D01*
X166833333Y-60440476D01*
X166809524Y-60464286D01*
X166761905Y-60488095D01*
X166571429Y-60488095D01*
X167071429Y-60726190D02*
X167071429Y-60392857D01*
X167071429Y-60488095D02*
X167095238Y-60440476D01*
X167119048Y-60416667D01*
X167166667Y-60392857D01*
X167214286Y-60392857D01*
X167380953Y-60726190D02*
X167380953Y-60392857D01*
X167380953Y-60226190D02*
X167357143Y-60250000D01*
X167380953Y-60273810D01*
X167404762Y-60250000D01*
X167380953Y-60226190D01*
X167380953Y-60273810D01*
X167619048Y-60726190D02*
X167619048Y-60392857D01*
X167619048Y-60440476D02*
X167642857Y-60416667D01*
X167690476Y-60392857D01*
X167761905Y-60392857D01*
X167809524Y-60416667D01*
X167833333Y-60464286D01*
X167833333Y-60726190D01*
X167833333Y-60464286D02*
X167857143Y-60416667D01*
X167904762Y-60392857D01*
X167976190Y-60392857D01*
X168023810Y-60416667D01*
X168047619Y-60464286D01*
X168047619Y-60726190D01*
X168476191Y-60702381D02*
X168428572Y-60726190D01*
X168333334Y-60726190D01*
X168285715Y-60702381D01*
X168261905Y-60654762D01*
X168261905Y-60464286D01*
X168285715Y-60416667D01*
X168333334Y-60392857D01*
X168428572Y-60392857D01*
X168476191Y-60416667D01*
X168500000Y-60464286D01*
X168500000Y-60511905D01*
X168261905Y-60559524D01*
X165619048Y-61267857D02*
X165619048Y-61601190D01*
X165619048Y-61315476D02*
X165642857Y-61291667D01*
X165690476Y-61267857D01*
X165761905Y-61267857D01*
X165809524Y-61291667D01*
X165833333Y-61339286D01*
X165833333Y-61601190D01*
X166142857Y-61601190D02*
X166095238Y-61577381D01*
X166071429Y-61553571D01*
X166047619Y-61505952D01*
X166047619Y-61363095D01*
X166071429Y-61315476D01*
X166095238Y-61291667D01*
X166142857Y-61267857D01*
X166214286Y-61267857D01*
X166261905Y-61291667D01*
X166285714Y-61315476D01*
X166309524Y-61363095D01*
X166309524Y-61505952D01*
X166285714Y-61553571D01*
X166261905Y-61577381D01*
X166214286Y-61601190D01*
X166142857Y-61601190D01*
X166476191Y-61267857D02*
X166595238Y-61601190D01*
X166714286Y-61267857D01*
X167261904Y-61148810D02*
X167285714Y-61125000D01*
X167333333Y-61101190D01*
X167452380Y-61101190D01*
X167499999Y-61125000D01*
X167523809Y-61148810D01*
X167547618Y-61196429D01*
X167547618Y-61244048D01*
X167523809Y-61315476D01*
X167238095Y-61601190D01*
X167547618Y-61601190D01*
X167857142Y-61101190D02*
X167904761Y-61101190D01*
X167952380Y-61125000D01*
X167976189Y-61148810D01*
X167999999Y-61196429D01*
X168023808Y-61291667D01*
X168023808Y-61410714D01*
X167999999Y-61505952D01*
X167976189Y-61553571D01*
X167952380Y-61577381D01*
X167904761Y-61601190D01*
X167857142Y-61601190D01*
X167809523Y-61577381D01*
X167785713Y-61553571D01*
X167761904Y-61505952D01*
X167738094Y-61410714D01*
X167738094Y-61291667D01*
X167761904Y-61196429D01*
X167785713Y-61148810D01*
X167809523Y-61125000D01*
X167857142Y-61101190D01*
X168499998Y-61601190D02*
X168214284Y-61601190D01*
X168357141Y-61601190D02*
X168357141Y-61101190D01*
X168309522Y-61172619D01*
X168261903Y-61220238D01*
X168214284Y-61244048D01*
X168928569Y-61101190D02*
X168833331Y-61101190D01*
X168785712Y-61125000D01*
X168761903Y-61148810D01*
X168714284Y-61220238D01*
X168690474Y-61315476D01*
X168690474Y-61505952D01*
X168714284Y-61553571D01*
X168738093Y-61577381D01*
X168785712Y-61601190D01*
X168880950Y-61601190D01*
X168928569Y-61577381D01*
X168952379Y-61553571D01*
X168976188Y-61505952D01*
X168976188Y-61386905D01*
X168952379Y-61339286D01*
X168928569Y-61315476D01*
X168880950Y-61291667D01*
X168785712Y-61291667D01*
X168738093Y-61315476D01*
X168714284Y-61339286D01*
X168690474Y-61386905D01*
D12*
X166316000Y-77441000D02*
X166316000Y-76679000D01*
X166316000Y-76679000D02*
X150314000Y-76679000D01*
X150314000Y-76679000D02*
X150314000Y-77441000D01*
D13*
X159450000Y-65150000D02*
X162700000Y-65150000D01*
X162700000Y-65150000D02*
X162700000Y-71650000D01*
X162700000Y-71650000D02*
X159450000Y-71650000D01*
X159450000Y-71650000D02*
X159450000Y-65150000D01*
X166200000Y-70350000D02*
X166200000Y-69650000D01*
X167400000Y-69650000D02*
X167400000Y-70350000D01*
X167400000Y-66550000D02*
X167400000Y-67250000D01*
X166200000Y-67250000D02*
X166200000Y-66550000D01*
X154500000Y-67900000D02*
X154500000Y-69700000D01*
X155700000Y-67900000D02*
X155700000Y-69700000D01*
X154260000Y-52350000D02*
X154260000Y-61180000D01*
X156800000Y-52350000D02*
X154260000Y-52350000D01*
X156800000Y-61180000D02*
X154260000Y-61180000D01*
X159340000Y-61180000D02*
X156800000Y-61180000D01*
X159340000Y-52350000D02*
X156800000Y-52350000D01*
X156800000Y-52350000D02*
X156800000Y-61180000D01*
X159340000Y-52350000D02*
X159340000Y-61180000D01*
X161880000Y-52350000D02*
X159340000Y-52350000D01*
X161880000Y-61180000D02*
X161880000Y-52350000D01*
X161880000Y-61180000D02*
X159340000Y-61180000D01*
X164420000Y-61180000D02*
X161880000Y-61180000D01*
X163150000Y-63850000D02*
X164700000Y-63850000D01*
X164700000Y-63850000D02*
X164700000Y-62450000D01*
X164420000Y-61180000D02*
X164420000Y-52350000D01*
X164420000Y-52350000D02*
X161880000Y-52350000D01*
X161880000Y-52350000D02*
X161880000Y-61180000D01*
X155775000Y-65300000D02*
X155775000Y-66300000D01*
X154425000Y-66300000D02*
X154425000Y-65300000D01*
X166125000Y-73600000D02*
X166125000Y-72600000D01*
X167475000Y-72600000D02*
X167475000Y-73600000D01*
X151970000Y-68830000D02*
X151970000Y-63750000D01*
X151970000Y-63750000D02*
X149430000Y-63750000D01*
X149430000Y-63750000D02*
X149430000Y-68830000D01*
X149150000Y-71650000D02*
X149150000Y-70100000D01*
X149430000Y-68830000D02*
X151970000Y-68830000D01*
X152250000Y-70100000D02*
X152250000Y-71650000D01*
X152250000Y-71650000D02*
X149150000Y-71650000D01*
X152180952Y-91228571D02*
X152514286Y-91228571D01*
X152657143Y-91752381D02*
X152180952Y-91752381D01*
X152180952Y-90752381D01*
X152657143Y-90752381D01*
X153038095Y-91704762D02*
X153180952Y-91752381D01*
X153419048Y-91752381D01*
X153514286Y-91704762D01*
X153561905Y-91657143D01*
X153609524Y-91561905D01*
X153609524Y-91466667D01*
X153561905Y-91371429D01*
X153514286Y-91323810D01*
X153419048Y-91276190D01*
X153228571Y-91228571D01*
X153133333Y-91180952D01*
X153085714Y-91133333D01*
X153038095Y-91038095D01*
X153038095Y-90942857D01*
X153085714Y-90847619D01*
X153133333Y-90800000D01*
X153228571Y-90752381D01*
X153466667Y-90752381D01*
X153609524Y-90800000D01*
X154038095Y-91752381D02*
X154038095Y-90752381D01*
X154419048Y-90752381D01*
X154514286Y-90800000D01*
X154561905Y-90847619D01*
X154609524Y-90942857D01*
X154609524Y-91085714D01*
X154561905Y-91180952D01*
X154514286Y-91228571D01*
X154419048Y-91276190D01*
X154038095Y-91276190D01*
X155180952Y-91180952D02*
X155085714Y-91133333D01*
X155038095Y-91085714D01*
X154990476Y-90990476D01*
X154990476Y-90942857D01*
X155038095Y-90847619D01*
X155085714Y-90800000D01*
X155180952Y-90752381D01*
X155371429Y-90752381D01*
X155466667Y-90800000D01*
X155514286Y-90847619D01*
X155561905Y-90942857D01*
X155561905Y-90990476D01*
X155514286Y-91085714D01*
X155466667Y-91133333D01*
X155371429Y-91180952D01*
X155180952Y-91180952D01*
X155085714Y-91228571D01*
X155038095Y-91276190D01*
X154990476Y-91371429D01*
X154990476Y-91561905D01*
X155038095Y-91657143D01*
X155085714Y-91704762D01*
X155180952Y-91752381D01*
X155371429Y-91752381D01*
X155466667Y-91704762D01*
X155514286Y-91657143D01*
X155561905Y-91561905D01*
X155561905Y-91371429D01*
X155514286Y-91276190D01*
X155466667Y-91228571D01*
X155371429Y-91180952D01*
X155942857Y-90847619D02*
X155990476Y-90800000D01*
X156085714Y-90752381D01*
X156323810Y-90752381D01*
X156419048Y-90800000D01*
X156466667Y-90847619D01*
X156514286Y-90942857D01*
X156514286Y-91038095D01*
X156466667Y-91180952D01*
X155895238Y-91752381D01*
X156514286Y-91752381D01*
X157371429Y-90752381D02*
X157180952Y-90752381D01*
X157085714Y-90800000D01*
X157038095Y-90847619D01*
X156942857Y-90990476D01*
X156895238Y-91180952D01*
X156895238Y-91561905D01*
X156942857Y-91657143D01*
X156990476Y-91704762D01*
X157085714Y-91752381D01*
X157276191Y-91752381D01*
X157371429Y-91704762D01*
X157419048Y-91657143D01*
X157466667Y-91561905D01*
X157466667Y-91323810D01*
X157419048Y-91228571D01*
X157371429Y-91180952D01*
X157276191Y-91133333D01*
X157085714Y-91133333D01*
X156990476Y-91180952D01*
X156942857Y-91228571D01*
X156895238Y-91323810D01*
X158323810Y-90752381D02*
X158133333Y-90752381D01*
X158038095Y-90800000D01*
X157990476Y-90847619D01*
X157895238Y-90990476D01*
X157847619Y-91180952D01*
X157847619Y-91561905D01*
X157895238Y-91657143D01*
X157942857Y-91704762D01*
X158038095Y-91752381D01*
X158228572Y-91752381D01*
X158323810Y-91704762D01*
X158371429Y-91657143D01*
X158419048Y-91561905D01*
X158419048Y-91323810D01*
X158371429Y-91228571D01*
X158323810Y-91180952D01*
X158228572Y-91133333D01*
X158038095Y-91133333D01*
X157942857Y-91180952D01*
X157895238Y-91228571D01*
X157847619Y-91323810D01*
X158847619Y-91371429D02*
X159609524Y-91371429D01*
X160609524Y-91752381D02*
X160038095Y-91752381D01*
X160323809Y-91752381D02*
X160323809Y-90752381D01*
X160228571Y-90895238D01*
X160133333Y-90990476D01*
X160038095Y-91038095D01*
X160990476Y-90847619D02*
X161038095Y-90800000D01*
X161133333Y-90752381D01*
X161371429Y-90752381D01*
X161466667Y-90800000D01*
X161514286Y-90847619D01*
X161561905Y-90942857D01*
X161561905Y-91038095D01*
X161514286Y-91180952D01*
X160942857Y-91752381D01*
X161561905Y-91752381D01*
X161990476Y-91228571D02*
X162323810Y-91228571D01*
X162466667Y-91752381D02*
X161990476Y-91752381D01*
X161990476Y-90752381D01*
X162466667Y-90752381D01*
X160652381Y-73461905D02*
X161461905Y-73461905D01*
X161557143Y-73414286D01*
X161604762Y-73366667D01*
X161652381Y-73271429D01*
X161652381Y-73080952D01*
X161604762Y-72985714D01*
X161557143Y-72938095D01*
X161461905Y-72890476D01*
X160652381Y-72890476D01*
X161652381Y-71890476D02*
X161652381Y-72461905D01*
X161652381Y-72176191D02*
X160652381Y-72176191D01*
X160795238Y-72271429D01*
X160890476Y-72366667D01*
X160938095Y-72461905D01*
X168757143Y-70766666D02*
X168804762Y-70814285D01*
X168852381Y-70957142D01*
X168852381Y-71052380D01*
X168804762Y-71195238D01*
X168709524Y-71290476D01*
X168614286Y-71338095D01*
X168423810Y-71385714D01*
X168280952Y-71385714D01*
X168090476Y-71338095D01*
X167995238Y-71290476D01*
X167900000Y-71195238D01*
X167852381Y-71052380D01*
X167852381Y-70957142D01*
X167900000Y-70814285D01*
X167947619Y-70766666D01*
X168852381Y-69814285D02*
X168852381Y-70385714D01*
X168852381Y-70100000D02*
X167852381Y-70100000D01*
X167995238Y-70195238D01*
X168090476Y-70290476D01*
X168138095Y-70385714D01*
X168757143Y-67666666D02*
X168804762Y-67714285D01*
X168852381Y-67857142D01*
X168852381Y-67952380D01*
X168804762Y-68095238D01*
X168709524Y-68190476D01*
X168614286Y-68238095D01*
X168423810Y-68285714D01*
X168280952Y-68285714D01*
X168090476Y-68238095D01*
X167995238Y-68190476D01*
X167900000Y-68095238D01*
X167852381Y-67952380D01*
X167852381Y-67857142D01*
X167900000Y-67714285D01*
X167947619Y-67666666D01*
X167947619Y-67285714D02*
X167900000Y-67238095D01*
X167852381Y-67142857D01*
X167852381Y-66904761D01*
X167900000Y-66809523D01*
X167947619Y-66761904D01*
X168042857Y-66714285D01*
X168138095Y-66714285D01*
X168280952Y-66761904D01*
X168852381Y-67333333D01*
X168852381Y-66714285D01*
X154052381Y-70438095D02*
X153052381Y-70438095D01*
X153052381Y-70200000D01*
X153100000Y-70057142D01*
X153195238Y-69961904D01*
X153290476Y-69914285D01*
X153480952Y-69866666D01*
X153623810Y-69866666D01*
X153814286Y-69914285D01*
X153909524Y-69961904D01*
X154004762Y-70057142D01*
X154052381Y-70200000D01*
X154052381Y-70438095D01*
X154052381Y-68914285D02*
X154052381Y-69485714D01*
X154052381Y-69200000D02*
X153052381Y-69200000D01*
X153195238Y-69295238D01*
X153290476Y-69390476D01*
X153338095Y-69485714D01*
X152261905Y-60452381D02*
X152261905Y-59452381D01*
X152642858Y-59452381D01*
X152738096Y-59500000D01*
X152785715Y-59547619D01*
X152833334Y-59642857D01*
X152833334Y-59785714D01*
X152785715Y-59880952D01*
X152738096Y-59928571D01*
X152642858Y-59976190D01*
X152261905Y-59976190D01*
X153785715Y-60452381D02*
X153214286Y-60452381D01*
X153500000Y-60452381D02*
X153500000Y-59452381D01*
X153404762Y-59595238D01*
X153309524Y-59690476D01*
X153214286Y-59738095D01*
X154052381Y-66466666D02*
X153576190Y-66800000D01*
X154052381Y-67038095D02*
X153052381Y-67038095D01*
X153052381Y-66657142D01*
X153100000Y-66561904D01*
X153147619Y-66514285D01*
X153242857Y-66466666D01*
X153385714Y-66466666D01*
X153480952Y-66514285D01*
X153528571Y-66561904D01*
X153576190Y-66657142D01*
X153576190Y-67038095D01*
X154052381Y-65514285D02*
X154052381Y-66085714D01*
X154052381Y-65800000D02*
X153052381Y-65800000D01*
X153195238Y-65895238D01*
X153290476Y-65990476D01*
X153338095Y-66085714D01*
X168952381Y-73766666D02*
X168476190Y-74100000D01*
X168952381Y-74338095D02*
X167952381Y-74338095D01*
X167952381Y-73957142D01*
X168000000Y-73861904D01*
X168047619Y-73814285D01*
X168142857Y-73766666D01*
X168285714Y-73766666D01*
X168380952Y-73814285D01*
X168428571Y-73861904D01*
X168476190Y-73957142D01*
X168476190Y-74338095D01*
X167952381Y-72909523D02*
X167952381Y-73100000D01*
X168000000Y-73195238D01*
X168047619Y-73242857D01*
X168190476Y-73338095D01*
X168380952Y-73385714D01*
X168761905Y-73385714D01*
X168857143Y-73338095D01*
X168904762Y-73290476D01*
X168952381Y-73195238D01*
X168952381Y-73004761D01*
X168904762Y-72909523D01*
X168857143Y-72861904D01*
X168761905Y-72814285D01*
X168523810Y-72814285D01*
X168428571Y-72861904D01*
X168380952Y-72909523D01*
X168333333Y-73004761D01*
X168333333Y-73195238D01*
X168380952Y-73290476D01*
X168428571Y-73338095D01*
X168523810Y-73385714D01*
X149561905Y-73152381D02*
X149561905Y-72152381D01*
X149942858Y-72152381D01*
X150038096Y-72200000D01*
X150085715Y-72247619D01*
X150133334Y-72342857D01*
X150133334Y-72485714D01*
X150085715Y-72580952D01*
X150038096Y-72628571D01*
X149942858Y-72676190D01*
X149561905Y-72676190D01*
X150514286Y-72247619D02*
X150561905Y-72200000D01*
X150657143Y-72152381D01*
X150895239Y-72152381D01*
X150990477Y-72200000D01*
X151038096Y-72247619D01*
X151085715Y-72342857D01*
X151085715Y-72438095D01*
X151038096Y-72580952D01*
X150466667Y-73152381D01*
X151085715Y-73152381D01*
X148228571Y-67228571D02*
X148228571Y-67561905D01*
X148752381Y-67561905D02*
X147752381Y-67561905D01*
X147752381Y-67085714D01*
X148752381Y-66561905D02*
X148704762Y-66657143D01*
X148609524Y-66704762D01*
X147752381Y-66704762D01*
X148752381Y-65752380D02*
X148228571Y-65752380D01*
X148133333Y-65799999D01*
X148085714Y-65895237D01*
X148085714Y-66085714D01*
X148133333Y-66180952D01*
X148704762Y-65752380D02*
X148752381Y-65847618D01*
X148752381Y-66085714D01*
X148704762Y-66180952D01*
X148609524Y-66228571D01*
X148514286Y-66228571D01*
X148419048Y-66180952D01*
X148371429Y-66085714D01*
X148371429Y-65847618D01*
X148323810Y-65752380D01*
X148704762Y-65323809D02*
X148752381Y-65228571D01*
X148752381Y-65038095D01*
X148704762Y-64942856D01*
X148609524Y-64895237D01*
X148561905Y-64895237D01*
X148466667Y-64942856D01*
X148419048Y-65038095D01*
X148419048Y-65180952D01*
X148371429Y-65276190D01*
X148276190Y-65323809D01*
X148228571Y-65323809D01*
X148133333Y-65276190D01*
X148085714Y-65180952D01*
X148085714Y-65038095D01*
X148133333Y-64942856D01*
X148752381Y-64466666D02*
X147752381Y-64466666D01*
X148752381Y-64038094D02*
X148228571Y-64038094D01*
X148133333Y-64085713D01*
X148085714Y-64180951D01*
X148085714Y-64323809D01*
X148133333Y-64419047D01*
X148180952Y-64466666D01*
M02*
